<svg width="562" height="422" viewBox="0 0 562 422" fill="none" xmlns="http://www.w3.org/2000/svg">
<path d="M104.216 371.098L83.2464 180.369C82.6844 175.276 84.1948 170.148 87.3911 166.144L167.757 66.2132C171.937 61.0147 178.541 58.3452 185.179 59.153L412.895 87.253C420.025 88.1312 426.102 92.9082 428.631 99.6522L475.382 224.557C476.506 227.542 476.857 230.739 476.436 233.865L458.241 371.098H104.216Z" fill="#F4F4F4"/>
<path d="M169.935 221.85C178.664 221.85 185.741 214.774 185.741 206.044C185.741 197.314 178.664 190.238 169.935 190.238C161.205 190.238 154.128 197.314 154.128 206.044C154.128 214.774 161.205 221.85 169.935 221.85Z" fill="white"/>
<path d="M162.77 201.546C162.77 200.105 163.929 198.946 165.369 198.946C166.809 198.946 167.968 200.105 167.968 201.546C167.968 202.986 166.809 204.145 165.369 204.145C163.929 204.145 162.77 202.986 162.77 201.546Z" fill="#FFBD3A"/>
<path d="M164.244 211.242L173.869 198.948C174.009 198.772 174.22 198.772 174.396 198.878L175.871 200.037C176.046 200.177 176.046 200.388 175.941 200.564L166.317 212.857C166.176 213.033 165.966 213.033 165.79 212.928L164.315 211.768C164.139 211.628 164.104 211.417 164.244 211.242Z" fill="#FFBD3A"/>
<path d="M174.501 213.316C173.061 213.316 171.902 212.157 171.902 210.717C171.902 209.277 173.061 208.118 174.501 208.118C175.941 208.118 177.1 209.277 177.1 210.717C177.1 212.157 175.941 213.316 174.501 213.316Z" fill="#FFBD3A"/>
<g opacity="0.4">
<path opacity="0.4" d="M162.77 201.547C162.77 200.106 163.929 198.947 165.369 198.947C166.809 198.947 167.968 200.106 167.968 201.547C167.968 202.987 166.809 204.146 165.369 204.146C163.929 204.146 162.77 202.987 162.77 201.547Z" fill="white"/>
<path opacity="0.4" d="M164.245 211.24L173.869 198.946C174.01 198.771 174.22 198.771 174.396 198.876L175.871 200.035C176.047 200.176 176.047 200.386 175.942 200.562L166.317 212.856C166.177 213.031 165.966 213.031 165.79 212.926L164.315 211.767C164.14 211.626 164.104 211.416 164.245 211.24Z" fill="white"/>
<path opacity="0.4" d="M174.501 213.312C173.061 213.312 171.902 212.153 171.902 210.713C171.902 209.273 173.061 208.113 174.501 208.113C175.941 208.113 177.1 209.273 177.1 210.713C177.1 212.153 175.941 213.312 174.501 213.312Z" fill="white"/>
</g>
<path d="M155.99 157.258C164.719 157.258 171.796 150.181 171.796 141.451C171.796 132.722 164.719 125.645 155.99 125.645C147.26 125.645 140.184 132.722 140.184 141.451C140.184 150.181 147.26 157.258 155.99 157.258Z" fill="white"/>
<path d="M164.491 136.039C164.42 135.969 164.315 135.898 164.21 135.898H150.651L150.265 134.037C150.23 133.861 150.089 133.756 149.914 133.756H147.771C147.56 133.756 147.42 133.931 147.42 134.107C147.42 134.283 147.596 134.458 147.771 134.458H149.633L151.354 143.134C151.6 144.293 152.618 145.136 153.813 145.136H162.032C162.243 145.136 162.383 144.961 162.383 144.785C162.383 144.609 162.208 144.434 162.032 144.434H153.813C153.216 144.434 152.689 144.153 152.373 143.696L162.805 142.291C162.945 142.256 163.086 142.151 163.121 142.01L164.561 136.32C164.561 136.25 164.561 136.109 164.491 136.039Z" fill="#FFBD3A"/>
<path d="M160.917 149.434C161.894 149.275 162.557 148.355 162.399 147.379C162.24 146.402 161.32 145.739 160.343 145.897C159.367 146.056 158.703 146.976 158.862 147.953C159.021 148.929 159.94 149.593 160.917 149.434Z" fill="#FFBD3A"/>
<path d="M153.496 149.457C154.486 149.457 155.288 148.655 155.288 147.665C155.288 146.676 154.486 145.874 153.496 145.874C152.507 145.874 151.705 146.676 151.705 147.665C151.705 148.655 152.507 149.457 153.496 149.457Z" fill="#FFBD3A"/>
<g opacity="0.4">
<path opacity="0.4" d="M164.491 136.039C164.42 135.969 164.315 135.898 164.21 135.898H150.651L150.265 134.037C150.23 133.861 150.089 133.756 149.914 133.756H147.771C147.56 133.756 147.42 133.931 147.42 134.107C147.42 134.283 147.596 134.458 147.771 134.458H149.633L151.354 143.134C151.6 144.293 152.618 145.136 153.813 145.136H162.032C162.243 145.136 162.383 144.961 162.383 144.785C162.383 144.609 162.208 144.434 162.032 144.434H153.813C153.216 144.434 152.689 144.153 152.373 143.696L162.805 142.291C162.945 142.256 163.086 142.151 163.121 142.01L164.561 136.32C164.561 136.25 164.561 136.109 164.491 136.039Z" fill="white"/>
<path opacity="0.4" d="M160.918 149.434C161.895 149.276 162.558 148.356 162.399 147.379C162.241 146.403 161.321 145.739 160.344 145.898C159.367 146.056 158.704 146.977 158.863 147.953C159.022 148.93 159.941 149.593 160.918 149.434Z" fill="white"/>
<path opacity="0.4" d="M153.497 149.457C154.486 149.457 155.288 148.655 155.288 147.666C155.288 146.677 154.486 145.875 153.497 145.875C152.508 145.875 151.706 146.677 151.706 147.666C151.706 148.655 152.508 149.457 153.497 149.457Z" fill="white"/>
</g>
<path d="M464.598 371.622H95.6104C95.4699 371.622 95.3293 371.517 95.3293 371.341C95.3293 371.165 95.4699 371.06 95.6104 371.06H464.598C464.739 371.06 464.879 371.165 464.879 371.341C464.879 371.517 464.774 371.622 464.598 371.622Z" fill="#B2B6BB"/>
<path d="M241.906 109.133C250.635 109.133 257.712 102.056 257.712 93.3268C257.712 84.5971 250.635 77.5205 241.906 77.5205C233.176 77.5205 226.1 84.5971 226.1 93.3268C226.1 102.056 233.176 109.133 241.906 109.133Z" fill="white"/>
<path d="M237.41 90.9729H238.956L241.976 86.4418L242.222 83.9128C242.257 83.5264 242.679 83.2805 243.03 83.4562C243.698 83.7723 244.365 84.6504 244.365 87.1443C244.365 89.9543 244.4 90.1299 244.4 90.1299L249.107 90.165C249.704 90.165 250.161 90.6217 250.196 91.2188C250.231 93.0102 250.301 96.5929 250.336 98.595C250.371 99.9649 249.528 101.229 248.264 101.546C248.088 101.581 247.913 101.616 247.737 101.616C246.472 101.616 240.08 100.597 240.08 100.597H237.445V90.9729H237.41Z" fill="#FFBD3A"/>
<path d="M233.02 90.9756L233.968 100.74H236.602V90.9756H233.02Z" fill="#FFBD3A"/>
<g opacity="0.4">
<g opacity="0.4">
<path opacity="0.4" d="M237.41 90.9734H238.956L241.976 86.4423L242.222 83.9133C242.257 83.5269 242.679 83.281 243.03 83.4567C243.698 83.7728 244.365 84.6509 244.365 87.1448C244.365 89.9548 244.4 90.1304 244.4 90.1304L249.107 90.1655C249.704 90.1655 250.161 90.6222 250.196 91.2193C250.231 93.0107 250.301 96.5934 250.336 98.5955C250.371 99.9654 249.528 101.23 248.264 101.546C248.088 101.581 247.913 101.616 247.737 101.616C246.472 101.616 240.08 100.598 240.08 100.598H237.445V90.9734H237.41Z" fill="white"/>
</g>
<g opacity="0.4">
<path opacity="0.4" d="M233.02 90.9746L233.968 100.739H236.602V90.9746H233.02Z" fill="white"/>
</g>
</g>
<path d="M313.807 371.097H291.221C288.481 371.097 286.269 368.884 286.269 366.144V119.356C286.269 116.616 288.481 114.403 291.221 114.403H313.807C321.218 114.403 327.259 120.41 327.259 127.856V357.644C327.259 365.055 321.253 371.097 313.807 371.097Z" fill="#21252B"/>
<path d="M305.166 371.097H197.332C189.359 371.097 182.861 364.634 182.861 356.625V128.875C182.861 120.901 189.324 114.403 197.332 114.403H305.166C313.139 114.403 319.638 120.866 319.638 128.875V356.625C319.602 364.599 313.139 371.097 305.166 371.097Z" fill="#61656D"/>
<path d="M304.991 120.305H277.066C275.169 120.305 273.519 121.64 273.167 123.537C272.816 125.398 271.165 126.768 269.268 126.768H233.195C231.298 126.768 229.647 125.433 229.296 123.537C228.945 121.675 227.294 120.305 225.397 120.305H197.473C192.52 120.305 188.516 124.309 188.516 129.262V356.205C188.516 361.157 192.52 365.162 197.473 365.162H304.955C309.908 365.162 313.912 361.157 313.912 356.205V129.262C313.912 124.309 309.908 120.305 304.991 120.305Z" fill="#FFBD3A"/>
<path opacity="0.7" d="M304.991 120.305H277.066C275.169 120.305 273.519 121.64 273.167 123.537C272.816 125.398 271.165 126.768 269.268 126.768H233.195C231.298 126.768 229.647 125.433 229.296 123.537C228.945 121.675 227.294 120.305 225.397 120.305H197.473C192.52 120.305 188.516 124.309 188.516 129.262V356.205C188.516 361.157 192.52 365.162 197.473 365.162H304.955C309.908 365.162 313.912 361.157 313.912 356.205V129.262C313.912 124.309 309.908 120.305 304.991 120.305Z" fill="white"/>
<path opacity="0.5" d="M265.651 122.342H236.848C236.286 122.342 235.83 121.886 235.83 121.324C235.83 120.762 236.286 120.305 236.848 120.305H265.651C266.213 120.305 266.669 120.762 266.669 121.324C266.669 121.886 266.213 122.342 265.651 122.342Z" fill="black"/>
<path d="M304.991 120.305L293.118 149.845H270.252L282.054 120.305H304.991Z" fill="#FFBD3A"/>
<path d="M282.124 120.305L270.252 149.845H247.385L259.187 120.305H282.124Z" fill="#3F4249"/>
<path d="M259.258 120.305L247.385 149.845H224.554L236.321 120.305H259.258Z" fill="#FFBD3A"/>
<path d="M236.391 120.305L224.554 149.845H201.688L213.455 120.305H236.391Z" fill="#3F4249"/>
<path d="M213.525 120.301L201.652 149.841H178.716L187.989 126.729C189.569 122.83 193.328 120.266 197.543 120.266H213.525V120.301Z" fill="#FFBD3A"/>
<path d="M304.991 120.305L293.118 149.845H270.252L282.054 120.305H304.991Z" fill="#FFBD3A"/>
<path d="M259.258 120.305L247.385 149.845H224.554L236.321 120.305H259.258Z" fill="#FFBD3A"/>
<path d="M213.525 120.301L201.652 149.841H178.716L187.989 126.729C189.569 122.83 193.328 120.266 197.543 120.266H213.525V120.301Z" fill="#FFBD3A"/>
<path d="M293.118 149.845H313.912V129.262C313.912 124.309 309.908 120.305 304.955 120.305L293.118 149.845Z" fill="#21252B"/>
<path d="M178.751 149.846H201.688V152.831C201.688 159.154 196.56 164.282 190.237 164.282C183.915 164.282 178.787 159.154 178.787 152.831V149.846H178.751Z" fill="#FFBD3A"/>
<path d="M201.618 149.846H224.554V152.831C224.554 159.154 219.426 164.282 213.104 164.282C206.781 164.282 201.653 159.154 201.653 152.831V149.846H201.618Z" fill="#21252B"/>
<path d="M224.484 149.846H247.421V152.831C247.421 159.154 242.292 164.282 235.97 164.282C229.647 164.282 224.519 159.154 224.519 152.831V149.846H224.484Z" fill="#FFBD3A"/>
<path d="M247.315 149.846H270.252V152.831C270.252 159.154 265.123 164.282 258.801 164.282C252.478 164.282 247.35 159.154 247.35 152.831V149.846H247.315Z" fill="#21252B"/>
<path d="M270.182 149.846H293.118V152.831C293.118 159.154 287.99 164.282 281.668 164.282C275.345 164.282 270.217 159.154 270.217 152.831V149.846H270.182Z" fill="#FFBD3A"/>
<path opacity="0.3" d="M178.751 149.846H201.688V152.831C201.688 159.154 196.56 164.282 190.237 164.282C183.915 164.282 178.787 159.154 178.787 152.831V149.846H178.751Z" fill="black"/>
<path opacity="0.3" d="M224.484 149.846H247.421V152.831C247.421 159.154 242.292 164.282 235.97 164.282C229.647 164.282 224.519 159.154 224.519 152.831V149.846H224.484Z" fill="black"/>
<path opacity="0.3" d="M270.182 149.846H293.118V152.831C293.118 159.154 287.99 164.282 281.668 164.282C275.345 164.282 270.217 159.154 270.217 152.831V149.846H270.182Z" fill="black"/>
<path d="M280.965 181.142H224.449C219.882 181.142 216.194 184.83 216.194 189.396V245.912C216.194 250.478 219.882 254.166 224.449 254.166H280.965C285.531 254.166 289.219 250.478 289.219 245.912V189.396C289.219 184.865 285.531 181.142 280.965 181.142Z" fill="#FFBD3A"/>
<g opacity="0.5">
<path opacity="0.5" d="M280.964 181.141H224.448C219.882 181.141 216.194 184.829 216.194 189.395V245.912C216.194 250.478 219.882 254.166 224.448 254.166H280.964C285.531 254.166 289.219 250.478 289.219 245.912V189.395C289.219 184.864 285.531 181.141 280.964 181.141Z" fill="white"/>
</g>
<path d="M278.188 181.405H221.672C217.106 181.405 213.417 185.093 213.417 189.659V246.175C213.417 250.742 217.106 254.43 221.672 254.43H278.188C282.754 254.43 286.442 250.742 286.442 246.175V189.659C286.442 185.128 282.754 181.405 278.188 181.405Z" fill="white"/>
<path d="M296.35 290.943H206.149C204.779 290.943 203.655 289.819 203.655 288.449C203.655 287.079 204.779 285.955 206.149 285.955H296.35C297.72 285.955 298.844 287.079 298.844 288.449C298.844 289.819 297.72 290.943 296.35 290.943Z" fill="white"/>
<path d="M296.35 276.046H206.149C204.779 276.046 203.655 274.922 203.655 273.552C203.655 272.183 204.779 271.059 206.149 271.059H296.35C297.72 271.059 298.844 272.183 298.844 273.552C298.844 274.922 297.72 276.046 296.35 276.046Z" fill="white"/>
<path d="M280.192 305.834H222.271C220.901 305.834 219.777 304.71 219.777 303.341C219.777 301.971 220.901 300.847 222.271 300.847H280.192C281.562 300.847 282.686 301.971 282.686 303.341C282.686 304.71 281.562 305.834 280.192 305.834Z" fill="white"/>
<path d="M411.103 252.864H370.674V274.923H411.103V252.864Z" fill="#B2B6BB"/>
<path d="M411.103 252.864H402.498V274.923H411.103V252.864Z" fill="#61656D"/>
<path d="M420.868 259.257L416.407 237.375" stroke="#868A91" stroke-width="0.129787" stroke-miterlimit="10"/>
<path d="M422.097 229.998L421.465 258.449" stroke="#868A91" stroke-width="0.129787" stroke-miterlimit="10"/>
<path d="M428.56 235.268L421.781 243.803" stroke="#868A91" stroke-width="0.129787" stroke-miterlimit="10"/>
<path d="M424.24 264.704L423.572 263.685C422.905 262.667 422.554 261.472 422.554 260.243V257.819H419.954V260.243C419.954 261.472 419.603 262.667 418.936 263.685L418.269 264.704C416.864 266.846 416.407 269.446 417.039 271.94L417.812 274.925H424.767L425.539 271.94C426.066 269.446 425.645 266.846 424.24 264.704Z" fill="#868A91"/>
<path d="M424.24 264.704L423.573 263.685C422.905 262.667 422.554 261.472 422.554 260.243V257.819H421.816V260.243C421.816 261.472 422.133 262.491 422.659 263.65L423.432 265.125C425.329 269.446 421.746 274.925 421.746 274.925H424.732L425.504 271.94C426.066 269.446 425.645 266.846 424.24 264.704Z" fill="#61656D"/>
<path d="M419.111 250.724L427.19 244.015" stroke="#868A91" stroke-width="0.129787" stroke-miterlimit="10"/>
<path d="M413.035 249.215L420.166 255.959" stroke="#868A91" stroke-width="0.129787" stroke-miterlimit="10"/>
<path d="M424.521 240.36L425.645 235.443C426.031 233.687 428.138 232.949 429.543 234.073C430.948 235.197 430.703 237.375 429.087 238.148L424.521 240.36Z" fill="#FFBD3A"/>
<path opacity="0.3" d="M424.521 240.36L425.645 235.443C426.031 233.687 428.138 232.949 429.543 234.073C430.948 235.197 430.703 237.375 429.087 238.148L424.521 240.36Z" fill="white"/>
<path d="M430.457 236.04C430.457 236.918 429.965 237.761 429.087 238.182L424.556 240.36L429.544 234.108C430.176 234.6 430.457 235.302 430.457 236.04Z" fill="#FFBD3A"/>
<path d="M421.956 238.184L418.76 231.546C417.601 229.192 419.322 226.453 421.956 226.453C424.591 226.453 426.312 229.192 425.153 231.546L421.956 238.184Z" fill="#FFBD3A"/>
<path opacity="0.3" d="M421.956 238.184L418.76 231.546C417.601 229.192 419.322 226.453 421.956 226.453C424.591 226.453 426.312 229.192 425.153 231.546L421.956 238.184Z" fill="white"/>
<path opacity="0.3" d="M422.097 226.453L421.957 238.184L425.153 231.546C426.277 229.228 424.626 226.558 422.097 226.453Z" fill="white"/>
<path d="M418.409 247.037L413.738 241.487C412.087 239.52 413.035 236.465 415.564 235.832C418.058 235.2 420.376 237.413 419.884 239.942L418.409 247.037Z" fill="#FFBD3A"/>
<path opacity="0.3" d="M419.849 239.903C420.376 237.374 418.058 235.161 415.529 235.793L418.374 246.963L419.849 239.903Z" fill="white"/>
<path d="M417.742 253.637L415.634 248.333C414.862 246.436 412.403 245.98 411.033 247.49C409.663 249 410.331 251.424 412.262 252.021L417.742 253.637Z" fill="#FFBD3A"/>
<path opacity="0.3" d="M417.742 253.637L415.634 248.333C414.862 246.436 412.403 245.98 411.033 247.49C409.663 249 410.331 251.424 412.262 252.021L417.742 253.637Z" fill="white"/>
<path opacity="0.3" d="M411.103 247.385L417.742 253.637L415.634 248.333C414.861 246.471 412.508 246.015 411.103 247.385Z" fill="white"/>
<path d="M421.29 249.004L423.608 243.384C424.416 241.382 427.05 240.925 428.49 242.541C429.93 244.157 429.193 246.721 427.12 247.318L421.29 249.004Z" fill="#FFBD3A"/>
<path opacity="0.3" d="M421.29 249.004L423.608 243.384C424.416 241.382 427.05 240.925 428.49 242.541C429.93 244.157 429.193 246.721 427.12 247.318L421.29 249.004Z" fill="white"/>
<path d="M421.5 255.815L432.529 249.774" stroke="#868A91" stroke-width="0.129787" stroke-miterlimit="10"/>
<path d="M423.327 254.798L427.331 249.319C428.771 247.387 431.722 247.562 432.846 249.705C433.97 251.848 432.494 254.412 430.106 254.517L423.327 254.798Z" fill="#FFBD3A"/>
<path opacity="0.3" d="M423.327 254.798L427.331 249.319C428.771 247.387 431.722 247.562 432.846 249.705C433.97 251.848 432.494 254.412 430.106 254.517L423.327 254.798Z" fill="white"/>
<path d="M432.951 252.618C432.459 253.672 431.405 254.515 430.106 254.55L423.327 254.831L432.846 249.738C433.337 250.686 433.337 251.74 432.951 252.618Z" fill="#FFBD3A"/>
<path opacity="0.3" d="M423.608 243.382L421.29 249.002L428.49 242.539C427.05 240.958 424.416 241.38 423.608 243.382Z" fill="white"/>
<path d="M427.998 277.315H451.567C452.234 277.315 452.761 276.788 452.761 276.121C452.761 275.453 452.234 274.926 451.567 274.926H427.998V277.315Z" fill="#B2B6BB"/>
<path d="M448.511 276.154H424.731V349.39H448.511V276.154Z" fill="#B2B6BB"/>
<path d="M425.469 276.154H345.7V349.39H425.469V276.154Z" fill="#DADDDF"/>
<path d="M421.781 343.805H349.107V286.34L421.781 286.411V343.805ZM349.634 343.278H421.254V286.937H349.634V343.278Z" fill="#B2B6BB"/>
<path d="M342.996 277.315H428.033C428.701 277.315 429.227 276.788 429.227 276.121C429.227 275.453 428.701 274.926 428.033 274.926H342.996C342.328 274.926 341.801 275.453 341.801 276.121C341.836 276.788 342.363 277.315 342.996 277.315Z" fill="#DADDDF"/>
<path d="M349.094 315.224H421.767V314.697H349.094V315.224Z" fill="#B2B6BB"/>
<path d="M382.617 295.577C383.625 295.577 384.443 294.76 384.443 293.751C384.443 292.742 383.625 291.924 382.617 291.924C381.608 291.924 380.79 292.742 380.79 293.751C380.79 294.76 381.608 295.577 382.617 295.577Z" fill="#B2B6BB"/>
<path opacity="0.15" d="M383.284 293.751C383.284 292.943 382.757 292.276 382.055 292.03C382.23 291.959 382.441 291.924 382.652 291.924C383.67 291.924 384.478 292.732 384.478 293.751C384.478 294.769 383.67 295.577 382.652 295.577C382.441 295.577 382.265 295.542 382.055 295.472C382.757 295.226 383.284 294.559 383.284 293.751Z" fill="black"/>
<path d="M382.617 323.854C383.625 323.854 384.443 323.036 384.443 322.027C384.443 321.018 383.625 320.201 382.617 320.201C381.608 320.201 380.79 321.018 380.79 322.027C380.79 323.036 381.608 323.854 382.617 323.854Z" fill="#B2B6BB"/>
<path opacity="0.15" d="M383.284 322.027C383.284 321.219 382.757 320.552 382.055 320.306C382.23 320.236 382.441 320.201 382.652 320.201C383.67 320.201 384.478 321.009 384.478 322.027C384.478 323.046 383.67 323.854 382.652 323.854C382.441 323.854 382.265 323.819 382.055 323.748C382.757 323.502 383.284 322.835 383.284 322.027Z" fill="black"/>
<path d="M429.192 279.771L425.469 277.312H345.7V278.436L429.192 279.771Z" fill="#B2B6BB"/>
<path d="M443.84 349.39L445.666 369.657C445.807 370.395 445.245 371.097 444.507 371.097C444.015 371.097 443.559 370.781 443.383 370.289L438.079 349.39H443.84Z" fill="#DADDDF"/>
<path d="M443.172 361.157L440.959 360.63L438.114 349.39H443.875L445.701 369.657C445.807 370.219 445.49 370.781 444.999 370.992L443.172 361.157Z" fill="#B2B6BB"/>
<path d="M423.151 349.39L424.977 369.657C425.118 370.395 424.556 371.097 423.818 371.097C423.326 371.097 422.87 370.781 422.694 370.289L417.39 349.39H423.151Z" fill="#DADDDF"/>
<path d="M421.219 351.638L417.918 351.006L417.355 349.39H423.116L424.943 369.657C425.048 370.219 424.732 370.781 424.24 370.992L421.219 351.638Z" fill="#B2B6BB"/>
<path d="M370.534 349.39L368.707 369.657C368.567 370.395 369.129 371.097 369.866 371.097C370.358 371.097 370.815 370.781 370.99 370.289L376.294 349.39H370.534Z" fill="#DADDDF"/>
<path d="M371.552 360.174L369.585 359.682L370.534 349.39H376.294L370.99 370.289C370.815 370.781 370.358 371.097 369.866 371.097C369.831 371.097 369.831 371.097 369.796 371.097L371.552 360.174Z" fill="#B2B6BB"/>
<path d="M349.283 349.39L347.457 369.657C347.316 370.395 347.878 371.097 348.616 371.097C349.108 371.097 349.564 370.781 349.74 370.289L355.044 349.39H349.283Z" fill="#DADDDF"/>
<path d="M351.531 351.146L349.002 350.69L349.283 349.39H355.044L349.74 370.289C349.564 370.781 349.107 371.097 348.616 371.097C348.581 371.097 348.581 371.097 348.545 371.097L351.531 351.146Z" fill="#B2B6BB"/>
<path d="M293.118 149.846V153.885C293.118 159.646 297.79 164.282 303.515 164.282C309.276 164.282 313.912 159.61 313.912 153.885V149.846H293.118Z" fill="#21252B"/>
<path opacity="0.2" d="M293.118 149.846V153.885C293.118 159.646 297.79 164.282 303.515 164.282C309.276 164.282 313.912 159.61 313.912 153.885V149.846H293.118Z" fill="black"/>
<path d="M244.821 350.618H201.406C200.318 350.618 199.439 349.74 199.439 348.651V338.571C199.439 337.482 200.318 336.604 201.406 336.604H244.821C245.91 336.604 246.788 337.482 246.788 338.571V348.651C246.788 349.74 245.91 350.618 244.821 350.618Z" fill="#21252B"/>
<path d="M242.538 350.618H199.124C198.035 350.618 197.157 349.74 197.157 348.651V338.571C197.157 337.482 198.035 336.604 199.124 336.604H242.538C243.627 336.604 244.505 337.482 244.505 338.571V348.651C244.505 349.74 243.627 350.618 242.538 350.618Z" fill="#3F4249"/>
<path d="M206.325 344.787H204.779L204.498 345.49H203.725L205.201 342.188H205.938L207.413 345.49H206.606L206.325 344.787ZM206.079 344.225L205.552 342.961L205.025 344.225H206.079Z" fill="white"/>
<path d="M207.764 342.222H209.275C209.626 342.222 209.942 342.292 210.223 342.432C210.504 342.573 210.715 342.749 210.855 342.994C210.996 343.24 211.066 343.521 211.066 343.873C211.066 344.189 210.996 344.505 210.855 344.751C210.715 344.997 210.504 345.207 210.223 345.313C209.942 345.453 209.626 345.523 209.275 345.523H207.764V342.222ZM209.204 344.891C209.52 344.891 209.801 344.786 209.977 344.61C210.153 344.435 210.258 344.189 210.258 343.873C210.258 343.556 210.153 343.311 209.977 343.135C209.801 342.959 209.52 342.854 209.204 342.854H208.502V344.891H209.204Z" fill="white"/>
<path d="M211.664 342.222H213.174C213.525 342.222 213.841 342.292 214.122 342.432C214.403 342.573 214.614 342.749 214.755 342.994C214.895 343.24 214.965 343.521 214.965 343.873C214.965 344.189 214.895 344.505 214.755 344.751C214.614 344.997 214.403 345.207 214.122 345.313C213.841 345.453 213.525 345.523 213.174 345.523H211.664V342.222ZM213.104 344.891C213.42 344.891 213.701 344.786 213.876 344.61C214.052 344.435 214.157 344.189 214.157 343.873C214.157 343.556 214.052 343.311 213.876 343.135C213.701 342.959 213.42 342.854 213.104 342.854H212.401V344.891H213.104Z" fill="white"/>
<path d="M217.564 342.82H216.511V342.188H219.391V342.82H218.337V345.49H217.564V342.82Z" fill="white"/>
<path d="M220.409 345.349C220.128 345.209 219.918 344.998 219.777 344.752C219.637 344.506 219.531 344.19 219.531 343.874C219.531 343.558 219.602 343.277 219.777 342.996C219.918 342.75 220.164 342.539 220.409 342.399C220.655 342.258 221.006 342.188 221.323 342.188C221.674 342.188 221.955 342.258 222.236 342.399C222.517 342.539 222.728 342.75 222.868 342.996C223.009 343.242 223.114 343.558 223.114 343.874C223.114 344.19 223.044 344.471 222.868 344.752C222.728 344.998 222.482 345.209 222.236 345.349C221.955 345.49 221.639 345.56 221.323 345.56C220.971 345.56 220.655 345.49 220.409 345.349ZM221.849 344.787C221.99 344.682 222.131 344.576 222.236 344.401C222.342 344.225 222.376 344.05 222.376 343.839C222.376 343.628 222.342 343.452 222.236 343.277C222.131 343.101 222.025 342.996 221.849 342.89C221.709 342.785 221.533 342.75 221.323 342.75C221.112 342.75 220.936 342.785 220.796 342.89C220.655 342.996 220.515 343.101 220.409 343.277C220.304 343.452 220.269 343.628 220.269 343.839C220.269 344.05 220.304 344.225 220.409 344.401C220.515 344.576 220.62 344.682 220.796 344.787C220.936 344.893 221.112 344.928 221.323 344.928C221.533 344.928 221.709 344.857 221.849 344.787Z" fill="white"/>
<path d="M225.678 345.349C225.397 345.209 225.187 344.998 225.046 344.752C224.906 344.506 224.8 344.19 224.8 343.874C224.8 343.558 224.87 343.242 225.046 342.996C225.187 342.75 225.397 342.539 225.678 342.399C225.959 342.258 226.24 342.188 226.591 342.188C226.872 342.188 227.118 342.223 227.364 342.328C227.61 342.434 227.785 342.574 227.961 342.75L227.469 343.207C227.259 342.961 226.978 342.82 226.627 342.82C226.416 342.82 226.24 342.855 226.064 342.961C225.889 343.066 225.783 343.171 225.678 343.347C225.573 343.523 225.537 343.698 225.537 343.909C225.537 344.12 225.573 344.295 225.678 344.471C225.783 344.647 225.889 344.752 226.064 344.857C226.24 344.963 226.416 344.998 226.627 344.998C226.943 344.998 227.223 344.857 227.469 344.612L227.961 345.068C227.821 345.244 227.61 345.419 227.364 345.49C227.118 345.595 226.872 345.63 226.591 345.63C226.275 345.56 225.959 345.49 225.678 345.349Z" fill="white"/>
<path d="M230.596 344.787H229.05L228.769 345.49H227.997L229.472 342.188H230.209L231.685 345.49H230.877L230.596 344.787ZM230.35 344.225L229.823 342.961L229.296 344.225H230.35Z" fill="white"/>
<path d="M234.108 345.49L233.476 344.576H233.441H232.774V345.49H232V342.188H233.441C233.722 342.188 234.003 342.223 234.213 342.328C234.424 342.434 234.6 342.574 234.705 342.75C234.811 342.926 234.881 343.136 234.881 343.382C234.881 343.628 234.811 343.839 234.705 344.014C234.6 344.19 234.424 344.331 234.213 344.436L234.951 345.49H234.108ZM233.932 342.961C233.827 342.855 233.651 342.82 233.405 342.82H232.774V343.979H233.405C233.651 343.979 233.792 343.944 233.932 343.839C234.038 343.733 234.108 343.593 234.108 343.417C234.108 343.207 234.038 343.066 233.932 342.961Z" fill="white"/>
<path d="M236.111 342.82H235.057V342.188H237.937V342.82H236.884V345.49H236.111V342.82Z" fill="white"/>
<path d="M300.389 350.618H256.974C255.885 350.618 255.007 349.74 255.007 348.651V338.571C255.007 337.482 255.885 336.604 256.974 336.604H300.389C301.478 336.604 302.356 337.482 302.356 338.571V348.651C302.356 349.74 301.478 350.618 300.389 350.618Z" fill="#FFBD3A"/>
<path opacity="0.15" d="M300.389 350.618H256.974C255.885 350.618 255.007 349.74 255.007 348.651V338.571C255.007 337.482 255.885 336.604 256.974 336.604H300.389C301.478 336.604 302.356 337.482 302.356 338.571V348.651C302.356 349.74 301.478 350.618 300.389 350.618Z" fill="black"/>
<path d="M298.106 350.618H254.692C253.603 350.618 252.725 349.74 252.725 348.651V338.571C252.725 337.482 253.603 336.604 254.692 336.604H298.106C299.195 336.604 300.073 337.482 300.073 338.571V348.651C300.073 349.74 299.195 350.618 298.106 350.618Z" fill="#FFBD3A"/>
<path d="M267.161 344.083C267.266 344.224 267.337 344.399 267.337 344.61C267.337 344.891 267.231 345.137 266.985 345.278C266.775 345.418 266.423 345.523 266.002 345.523H264.281V342.222H265.897C266.283 342.222 266.599 342.292 266.81 342.468C267.02 342.643 267.126 342.819 267.126 343.1C267.126 343.275 267.091 343.416 267.021 343.521C266.95 343.627 266.845 343.732 266.704 343.802C266.915 343.837 267.056 343.943 267.161 344.083ZM265.053 342.784V343.556H265.826C266.002 343.556 266.142 343.521 266.248 343.451C266.353 343.381 266.388 343.275 266.388 343.17C266.388 343.065 266.353 342.959 266.248 342.889C266.142 342.819 266.002 342.784 265.826 342.784H265.053ZM266.423 344.821C266.529 344.751 266.564 344.645 266.564 344.505C266.564 344.224 266.353 344.083 265.967 344.083H265.089V344.891H265.967C266.142 344.926 266.318 344.891 266.423 344.821Z" fill="white"/>
<path d="M268.285 345.174C268.039 344.928 267.898 344.541 267.898 344.05V342.188H268.671V344.014C268.671 344.612 268.917 344.893 269.409 344.893C269.655 344.893 269.83 344.822 269.971 344.682C270.111 344.541 270.146 344.331 270.146 344.014V342.188H270.884V344.05C270.884 344.541 270.744 344.893 270.498 345.174C270.252 345.419 269.865 345.56 269.409 345.56C268.882 345.56 268.531 345.419 268.285 345.174Z" fill="white"/>
<path d="M273.132 344.329V345.488H272.359V344.329L271.095 342.222H271.903L272.781 343.697L273.659 342.222H274.396L273.132 344.329Z" fill="white"/>
<path d="M279.103 342.222V345.523H278.471L276.82 343.521V345.523H276.083V342.222H276.715L278.366 344.224V342.222H279.103Z" fill="white"/>
<path d="M280.544 345.349C280.263 345.209 280.052 344.998 279.911 344.752C279.771 344.506 279.666 344.19 279.666 343.874C279.666 343.558 279.736 343.277 279.911 342.996C280.052 342.75 280.298 342.539 280.544 342.399C280.79 342.258 281.141 342.188 281.457 342.188C281.808 342.188 282.089 342.258 282.37 342.399C282.651 342.539 282.862 342.75 283.002 342.996C283.143 343.242 283.248 343.558 283.248 343.874C283.248 344.19 283.178 344.471 283.002 344.752C282.862 344.998 282.616 345.209 282.37 345.349C282.089 345.49 281.773 345.56 281.457 345.56C281.141 345.56 280.825 345.49 280.544 345.349ZM282.019 344.787C282.159 344.682 282.3 344.576 282.405 344.401C282.511 344.225 282.546 344.05 282.546 343.839C282.546 343.628 282.511 343.452 282.405 343.277C282.3 343.101 282.195 342.996 282.019 342.89C281.878 342.785 281.703 342.75 281.492 342.75C281.281 342.75 281.106 342.785 280.965 342.89C280.825 342.996 280.684 343.101 280.579 343.277C280.473 343.452 280.438 343.628 280.438 343.839C280.438 344.05 280.473 344.225 280.579 344.401C280.684 344.576 280.79 344.682 280.965 344.787C281.106 344.893 281.281 344.928 281.492 344.928C281.703 344.928 281.843 344.857 282.019 344.787Z" fill="white"/>
<path d="M288.728 342.222L287.639 345.523H286.831L286.093 343.275L285.356 345.523H284.548L283.459 342.222H284.267L285.005 344.54L285.777 342.222H286.48L287.218 344.54L287.99 342.222H288.728Z" fill="white"/>
<path opacity="0.3" d="M313.877 128.345C313.877 128.451 313.912 128.591 313.912 128.696C313.912 128.556 313.877 128.451 313.877 128.345Z" fill="black"/>
<path opacity="0.3" d="M304.991 120.305H197.473C193.925 120.305 190.588 122.342 188.973 124.942C190.062 124.204 191.572 124.309 193.363 124.309H307.379C310.646 124.309 313.526 125.152 313.877 128.314C313.421 123.818 309.627 120.305 304.991 120.305Z" fill="black"/>
<path d="M312.156 169.374L308.573 168.004L303.866 168.215C303.48 168.25 303.234 168.566 303.374 168.917C303.48 169.163 303.726 169.339 304.007 169.339L308.397 169.549L310.821 171.025L308.397 169.549L304.498 169.725C304.182 169.76 303.972 170.006 304.042 170.287C304.112 170.533 304.358 170.673 304.639 170.673L308.503 170.849L312.015 172.957L308.503 170.849L305.622 171.271C305.412 171.306 305.306 171.516 305.377 171.692C305.447 171.833 305.622 171.938 305.798 171.938H309.03L312.402 173.694L312.156 169.374Z" fill="#FC9D9D"/>
<path d="M312.156 169.374L308.573 168.004L303.866 168.215C303.48 168.25 303.234 168.566 303.374 168.917C303.48 169.163 303.726 169.339 304.007 169.339L308.397 169.549L310.821 171.025L308.397 169.549L304.498 169.725C304.182 169.76 303.972 170.006 304.042 170.287C304.112 170.533 304.358 170.673 304.639 170.673L308.503 170.849L312.015 172.957L308.503 170.849L305.622 171.271C305.412 171.306 305.306 171.516 305.377 171.692C305.447 171.833 305.622 171.938 305.798 171.938H309.03L312.402 173.694L312.156 169.374Z" fill="#FC9D9D"/>
<path opacity="0.15" d="M312.156 169.374L308.573 168.004L303.866 168.215C303.48 168.25 303.234 168.566 303.374 168.917C303.48 169.163 303.726 169.339 304.007 169.339L308.397 169.549L310.821 171.025L308.397 169.549L304.498 169.725C304.182 169.76 303.972 170.006 304.042 170.287C304.112 170.533 304.358 170.673 304.639 170.673L308.503 170.849L312.015 172.957L308.503 170.849L305.622 171.271C305.412 171.306 305.306 171.516 305.377 171.692C305.447 171.833 305.622 171.938 305.798 171.938H309.03L312.402 173.694L312.156 169.374Z" fill="black"/>
<path d="M312.191 168.11L316.863 172.536C317.108 172.782 317.46 172.957 317.811 173.098L328.489 176.189L325.644 182.511L317.389 178.718C317.108 178.577 316.792 178.507 316.511 178.507L316.02 178.472C314.017 178.507 312.226 177.84 310.856 176.54H310.821C310.645 176.365 310.4 176.224 310.154 176.119C309.24 175.803 306.992 174.995 306.992 174.995C306.852 174.96 306.782 174.819 306.817 174.679C306.957 174.117 307.554 173.695 308.292 173.765L309.943 173.941C310.821 174.011 311.488 173.344 311.313 172.606L310.364 169.375C310.329 169.164 310.154 168.988 309.978 168.883L304.604 166.003C304.358 165.897 304.253 165.616 304.358 165.441C304.463 165.16 304.815 165.054 305.096 165.16C306.501 165.687 310.821 167.408 311.805 167.829C311.98 167.935 312.086 168.005 312.191 168.11Z" fill="#FC9D9D"/>
<path opacity="0.15" d="M327.997 176.01L325.925 178.89C325.187 179.838 324.274 180.295 323.15 179.838L318.022 177.696C317.6 177.485 317.144 177.415 316.722 177.45C315.528 177.555 312.964 177.59 310.786 176.431C310.821 176.466 310.856 176.466 310.856 176.466H310.892C312.261 177.801 314.053 178.433 316.055 178.398L316.547 178.433C316.863 178.433 317.179 178.504 317.425 178.644L325.644 182.473V182.403L327.997 176.01Z" fill="black"/>
<path d="M388.869 351.074C388.482 352.549 388.377 353.111 388.447 354.586L388.412 364.456C388.482 366.177 388.939 367.863 389.817 369.339L390.028 369.69C390.52 370.568 391.468 371.095 392.487 371.095H395.297C396.596 371.095 397.72 370.217 398.036 368.952C398.388 367.477 398.458 365.967 398.177 364.491L395.788 353.919C395.613 353.006 395.402 352.022 394.945 351.074H388.869Z" fill="#FFBD3A"/>
<path d="M350.618 327.929L350.02 346.335C350.02 348.056 349.564 349.882 348.896 350.831L340.677 365.162L342.574 367.761L350.02 364.038L356.659 352.06C356.624 350.023 356.835 348.793 357.221 346.054L360.488 325.751L350.618 327.929Z" fill="#FC9D9D"/>
<path opacity="0.15" d="M350.056 352.62C350.828 351.496 351.777 348.862 351.987 347.632L352.901 341.064C352.971 340.572 353.357 340.186 353.849 340.116L358.38 339.483L358.45 338.5H350.266L350.02 346.333C349.985 347.597 349.739 349.599 348.896 350.829L340.677 365.16L341.836 367.092L350.056 352.62Z" fill="black"/>
<path d="M336.779 367.55L340.677 365.162C343.523 365.618 346.368 364.565 348.194 362.352L356.659 352.095C358.205 355.362 358.732 359.015 358.205 362.598L356.975 371.133H355.992L355.711 362.387C355.676 361.755 354.903 361.474 354.482 361.965L349.318 368.288C347.843 370.079 345.63 371.133 343.312 371.133H335.268C334.636 371.133 334.214 370.501 334.46 369.904C334.952 368.815 335.76 368.007 336.779 367.55Z" fill="#FFBD3A"/>
<path d="M388.483 346.648C388.904 350.196 389.08 353.743 389.045 357.326L388.974 361.576C389.045 363.438 390.59 364.913 392.452 364.913H393.014C395.121 364.913 396.737 363.051 396.456 360.944L395.472 355.886C394.981 353.322 394.805 350.687 394.946 348.088L395.894 330.912L387.042 331.053L388.483 346.648Z" fill="#FC9D9D"/>
<path d="M355.324 211.455L354.376 223.046L353.252 235.726C352.655 242.505 352.268 249.284 352.093 256.064L349.88 338.502H358.802L375.416 229.72C375.521 228.982 376.153 228.455 376.891 228.455C377.664 228.455 378.331 229.052 378.401 229.825L387.077 338.502L395.894 338.432L400.249 260.033C401.162 243.313 399.898 226.559 396.491 210.155L395.999 207.837L355.324 211.455Z" fill="#3F4249"/>
<path opacity="0.15" d="M387.709 338.534C387.709 338.534 388.763 349.563 388.833 351.038V351.073C388.974 353.146 389.009 355.218 388.974 357.326L388.904 361.576C388.974 363.402 390.414 364.842 392.205 364.913C390.59 363.648 390.73 361.611 390.66 360.065L390.379 341.379C390.379 340.782 390.8 340.255 391.398 340.149L395.332 339.447L395.367 338.569L387.709 338.534Z" fill="black"/>
<path opacity="0.2" d="M376.926 228.49C377.313 228.49 377.664 228.63 377.945 228.876C378.226 229.122 378.402 229.473 378.437 229.86L387.113 338.536L390.274 338.501L384.935 236.077C384.689 231.827 381.176 228.49 376.926 228.49Z" fill="black"/>
<path d="M397.896 171.728C397.896 171.728 398.844 167.022 399.968 161.999C400.741 158.416 398.493 154.903 394.91 154.131L387.007 152.41L384.127 151.812L367.794 151.953L365.897 152.48L358.556 154.517C356.308 155.22 354.692 156.589 353.639 158.416L353.603 158.521C353.287 159.048 344.857 180.65 344.857 180.65L327.927 176.084L325.539 182.582L345.911 191.995C348.3 193.084 351.11 192.101 352.269 189.783L355.606 183.144L357.011 187.499C359.364 195.613 355.992 206.432 354.587 210.331C354.341 211.033 354.868 211.771 355.606 211.771H369.761L382.687 211.736H396.245C397.053 211.736 397.65 211.033 397.51 210.225C397.475 210.015 395.402 203.341 394.84 195.368C394.629 192.522 394.91 189.642 395.472 186.832L397.896 171.728Z" fill="#FFBD3A"/>
<path opacity="0.6" d="M385.391 155.568L387.288 152.864L387.534 152.512L387.007 152.407L385.883 152.161L379.736 152.899L366.881 152.196L365.932 152.477L365.405 152.618L367.337 155.498C369.41 158.484 372.781 160.38 376.434 160.38C376.645 160.38 376.856 160.38 377.067 160.345C380.439 160.135 383.495 158.343 385.391 155.568Z" fill="black"/>
<path opacity="0.2" d="M355.324 211.595L354.376 223.046L353.673 230.949C352.795 240.925 352.233 250.9 351.952 260.911L349.88 338.537H353.428L359.012 230.422L359.996 211.665H355.64L355.465 211.63L355.324 211.595Z" fill="black"/>
<path d="M399.407 210.894L395.121 210.859C395.051 210.859 394.946 210.859 394.875 210.894L391.012 211.666C390.344 211.807 389.747 212.193 389.361 212.79L387.394 215.846C387.253 216.057 387.288 216.338 387.499 216.514C387.71 216.689 388.026 216.654 388.202 216.443L390.45 213.809L393.26 213.036L390.66 214.231L388.588 217.497C388.448 217.743 388.483 218.059 388.658 218.235C388.904 218.481 389.291 218.481 389.536 218.235C390.344 217.392 391.995 215.671 391.995 215.671L393.927 214.863L392.206 216.127L390.204 218.621C390.028 218.867 390.063 219.218 390.274 219.394C390.485 219.57 390.801 219.57 391.012 219.359L393.4 217.181L395.578 216.127L392.908 218.516C392.698 218.727 392.663 219.043 392.838 219.253C393.014 219.464 393.26 219.499 393.506 219.394L397.123 217.427L399.758 217.567C401.76 217.673 403.551 216.373 404.043 214.441L404.113 214.195L419.077 192.98L411.173 187.395L399.407 210.894Z" fill="#FC9D9D"/>
<path d="M398.493 156.237L422.554 180.754C424.415 182.651 424.661 185.636 423.081 187.814L410.049 205.868L404.148 201.127L412.122 185.636L395.262 171.024L398.493 156.237Z" fill="#FFBD3A"/>
<path opacity="0.15" d="M399.863 171.904L399.09 167.689C399.055 167.443 398.704 167.443 398.633 167.689L397.72 173.203L412.086 185.673L412.754 184.479C413.035 183.987 412.929 183.355 412.508 182.968L399.863 171.904Z" fill="black"/>
<path opacity="0.15" d="M404.324 201.303L407.556 205.448C407.766 205.693 407.766 206.08 407.591 206.326L402.884 213.491C402.884 213.491 401.338 217.566 397.51 217.46L399.793 217.566C401.795 217.671 403.586 216.371 404.078 214.439L404.148 214.194L410.014 205.869L404.324 201.303Z" fill="black"/>
<path opacity="0.6" d="M404.113 201.162L404.851 199.792L410.963 204.604L410.049 205.904L404.113 201.162Z" fill="black"/>
<path d="M385.075 123.817C388.18 123.817 390.695 121.301 390.695 118.197C390.695 115.093 388.18 112.577 385.075 112.577C381.97 112.577 379.455 115.093 379.455 118.197C379.455 121.301 381.97 123.817 385.075 123.817Z" fill="#21252B"/>
<path d="M388.237 122.833C386.902 123.746 385.181 124.097 383.495 123.606C380.509 122.727 378.788 119.636 379.631 116.651C379.701 116.44 379.772 116.264 379.842 116.089C382.406 116.405 386.797 118.653 388.237 122.833Z" fill="#FFBD3A"/>
<path d="M382.301 141.521C382.055 147.562 380.228 150.934 383.6 151.075C388.974 151.321 393.576 146.579 393.822 140.537C394.068 134.496 389.923 129.403 384.549 129.157C383.144 134.355 382.547 135.479 382.301 141.521Z" fill="#21252B"/>
<path d="M379.94 141.831C380.4 136.593 376.417 131.966 371.046 131.495C365.672 131.024 360.944 134.888 360.488 140.125C360.028 145.362 364.011 149.989 369.381 150.46C374.756 150.931 379.483 147.068 379.94 141.831Z" fill="#21252B"/>
<path d="M382.547 137.412L382.898 149.67C382.933 150.654 383.6 151.532 384.549 151.778L385.954 152.164L384.303 154.553C382.617 156.976 379.947 158.557 376.997 158.733C376.821 158.733 376.61 158.733 376.435 158.768C373.238 158.803 370.288 157.152 368.461 154.518L366.881 152.234L368.461 151.813C369.34 151.567 370.007 150.794 370.112 149.881L371.728 135.339L382.547 137.412Z" fill="#FC9D9D"/>
<path d="M374.011 146.473L374.573 146.508C378.753 146.684 382.266 143.452 382.441 139.273L382.898 128.665C382.968 127.26 381.879 126.101 380.474 126.03L370.604 125.609C368.813 125.539 367.267 126.944 367.197 128.735L366.775 138.57C366.6 142.75 369.831 146.298 374.011 146.473Z" fill="#FC9D9D"/>
<path d="M374.538 135.967C374.984 135.967 375.346 135.605 375.346 135.159C375.346 134.713 374.984 134.351 374.538 134.351C374.092 134.351 373.73 134.713 373.73 135.159C373.73 135.605 374.092 135.967 374.538 135.967Z" fill="#21252B"/>
<path d="M374.186 135.618C374.285 135.618 374.362 135.54 374.362 135.443C374.362 135.346 374.285 135.267 374.186 135.267C374.088 135.267 374.011 135.346 374.011 135.443C374.011 135.54 374.088 135.618 374.186 135.618Z" fill="white"/>
<path d="M368.216 135.967C368.662 135.967 369.023 135.605 369.023 135.159C369.023 134.713 368.662 134.351 368.216 134.351C367.77 134.351 367.408 134.713 367.408 135.159C367.408 135.605 367.77 135.967 368.216 135.967Z" fill="#21252B"/>
<path d="M367.794 135.581C367.892 135.581 367.969 135.503 367.969 135.406C367.969 135.309 367.892 135.23 367.794 135.23C367.695 135.23 367.618 135.309 367.618 135.406C367.618 135.503 367.695 135.581 367.794 135.581Z" fill="white"/>
<g opacity="0.3">
<path opacity="0.3" d="M371.411 139.659L372.5 139.729C372.64 139.729 372.746 139.624 372.746 139.518C372.746 139.378 372.64 139.272 372.535 139.272L371.446 139.202C371.165 139.167 370.954 138.956 370.989 138.675C371.024 138.394 371.235 138.183 371.516 138.219C371.657 138.219 371.762 138.113 371.762 138.008C371.762 137.867 371.657 137.762 371.551 137.762C371.025 137.727 370.533 138.113 370.498 138.675C370.463 139.167 370.884 139.624 371.411 139.659Z" fill="black"/>
</g>
<path d="M363.965 133.652C365.16 132.809 364.738 131.228 364.738 131.228C364.527 130.561 364.387 129.823 364.352 129.016C364.317 126.487 365.686 125.503 366.389 125.187C366.635 125.082 366.81 124.801 366.846 124.52C367.372 116.652 378.156 114.79 383.811 119.462C387.218 122.307 387.991 125.468 387.71 128.454C387.71 128.454 387.534 129.753 388.728 130.421L387.253 131.018C386.656 133.195 385.743 135.198 385.181 136.743C384.935 137.41 383.706 134.636 383.144 134.319C383.073 134.284 382.546 135.022 382.195 135.514C381.984 135.83 381.493 135.76 381.387 135.408C380.966 134.074 380.79 132.669 380.86 131.299L380.931 130.034C378.191 129.648 377.137 127.013 377.137 127.013C374.433 130.034 369.866 129.718 368.005 129.437C367.583 129.367 367.162 129.683 367.162 130.14L366.951 134.881C366.951 134.881 366.248 134.179 365.581 133.055L364.317 133.933L363.965 133.652Z" fill="#21252B"/>
<path d="M381.914 139.69C381.914 139.69 385.497 140.287 386.551 136.775C387.604 133.298 383.249 132.244 382.336 135.791L381.528 139.655L381.914 139.69Z" fill="#FC9D9D"/>
<path opacity="0.3" d="M385.602 134.811C385.251 134.53 384.9 134.389 384.548 134.424C384.197 134.459 383.881 134.67 383.635 135.056C383.354 135.443 383.178 135.899 383.108 136.391L383.073 136.778C383.038 137.059 383.53 137.199 383.565 136.848C383.635 136.426 383.635 136.426 383.635 136.426C383.635 136.321 383.776 135.654 384.057 135.302C384.267 135.056 384.443 134.881 384.654 134.881C384.864 134.846 385.11 134.951 385.356 135.162C385.462 135.232 385.602 135.232 385.672 135.127C385.707 135.021 385.707 134.881 385.602 134.811Z" fill="black"/>
<path d="M364.703 135.549C364.562 137.34 365.932 138.921 367.724 139.062C369.515 139.202 371.096 137.832 371.236 136.041C371.271 135.409 371.166 134.811 370.885 134.32C371.587 134.109 372.22 134.249 372.501 134.355C372.36 134.671 372.255 135.057 372.22 135.409C372.079 137.2 373.449 138.781 375.24 138.921C377.032 139.062 378.612 137.692 378.753 135.9C378.893 134.109 377.523 132.528 375.732 132.388C374.468 132.282 373.308 132.95 372.676 133.968C372.325 133.828 371.552 133.617 370.639 133.968C370.112 133.161 369.199 132.634 368.18 132.563C366.424 132.388 364.843 133.723 364.703 135.549ZM372.676 135.444C372.782 133.863 374.187 132.704 375.767 132.809C377.348 132.915 378.507 134.32 378.402 135.9C378.296 137.481 376.891 138.64 375.311 138.535C373.73 138.394 372.536 136.989 372.676 135.444ZM365.124 135.584C365.23 134.004 366.635 132.844 368.215 132.95C369.796 133.055 370.955 134.46 370.85 136.041C370.744 137.621 369.339 138.781 367.759 138.675C366.178 138.535 364.984 137.13 365.124 135.584Z" fill="white"/>
<path d="M382.968 139.199C383.354 139.199 383.67 138.885 383.67 138.497C383.67 138.109 383.354 137.794 382.968 137.794C382.581 137.794 382.265 138.109 382.265 138.497C382.265 138.885 382.581 139.199 382.968 139.199Z" fill="#FFBD3A"/>
<path opacity="0.15" d="M382.687 139.096C383.108 139.131 383.495 138.815 383.53 138.393C383.53 138.253 383.495 138.112 383.424 137.972C383.6 138.112 383.705 138.323 383.67 138.569C383.635 138.955 383.284 139.271 382.898 139.236C382.757 139.236 382.617 139.166 382.511 139.061C382.581 139.096 382.617 139.096 382.687 139.096Z" fill="black"/>
<path d="M368.812 130.876C372.009 130.981 374.187 129.963 375.451 129.12C376.821 128.171 377.453 127.223 377.488 127.188C377.559 127.082 377.523 126.977 377.418 126.907C377.313 126.836 377.207 126.872 377.137 126.977C377.102 127.012 374.678 130.665 368.848 130.454C368.742 130.454 368.637 130.525 368.637 130.665C368.602 130.77 368.707 130.841 368.812 130.876Z" fill="#21252B"/>
<path opacity="0.15" d="M382.617 139.73H381.458L382.687 142.189L382.617 139.73Z" fill="black"/>
<path opacity="0.15" d="M370.288 145.205C371.412 145.873 372.747 146.224 374.187 146.259C374.503 146.259 374.784 146.259 375.1 146.259C375.205 146.259 375.346 146.259 375.451 146.224C375.486 146.224 375.486 146.224 375.521 146.224C375.697 146.189 375.873 146.189 376.048 146.154C376.119 146.154 376.189 146.119 376.259 146.119C377.453 145.908 378.332 145.486 378.929 145.135C379.034 145.065 379.174 145.1 379.245 145.205C379.315 145.311 379.28 145.451 379.174 145.522C378.437 145.943 377.278 146.47 375.697 146.646C374.889 147.243 373.484 148.015 371.728 147.98C371.166 147.98 370.569 147.91 370.042 147.805L370.288 145.205Z" fill="black"/>
<path d="M370.78 140.955C370.674 140.955 370.604 141.06 370.639 141.166C371.061 141.974 371.833 142.501 372.747 142.501C373.66 142.501 374.433 141.974 374.854 141.166C374.889 141.06 374.854 140.955 374.714 140.955H370.78Z" fill="white"/>
<path opacity="0.6" d="M327.997 176.01L325.609 182.543L327.084 183.21L329.543 176.431L327.997 176.01Z" fill="black"/>
<path opacity="0.15" d="M356.87 168.707L356.097 171.482L355.114 173.133C353.393 176.013 352.795 179.455 353.463 182.757L350.266 189.431C349.459 191.011 347.14 192.205 345.138 191.538L345.981 191.924C348.37 193.013 351.18 192.03 352.339 189.712L355.676 183.073L355.395 182.16C354.517 179.279 354.868 176.153 356.343 173.484L357.186 172.009V168.742C357.221 168.566 356.94 168.531 356.87 168.707Z" fill="black"/>
<path d="M341.661 189.923L342.118 190.134L341.661 189.923Z" fill="black"/>
<path d="M362.209 157.08C362.539 157.08 362.806 156.813 362.806 156.483C362.806 156.153 362.539 155.886 362.209 155.886C361.879 155.886 361.612 156.153 361.612 156.483C361.612 156.813 361.879 157.08 362.209 157.08Z" fill="white"/>
<path d="M351.18 170.356C351.51 170.356 351.777 170.089 351.777 169.759C351.777 169.429 351.51 169.162 351.18 169.162C350.85 169.162 350.583 169.429 350.583 169.759C350.583 170.089 350.85 170.356 351.18 170.356Z" fill="white"/>
<path d="M347.421 190.061C347.751 190.061 348.018 189.794 348.018 189.464C348.018 189.134 347.751 188.867 347.421 188.867C347.092 188.867 346.824 189.134 346.824 189.464C346.824 189.794 347.092 190.061 347.421 190.061Z" fill="white"/>
<path d="M331.299 179.876C331.629 179.876 331.896 179.609 331.896 179.279C331.896 178.949 331.629 178.682 331.299 178.682C330.969 178.682 330.702 178.949 330.702 179.279C330.702 179.609 330.969 179.876 331.299 179.876Z" fill="white"/>
<path d="M394.102 162.768C394.433 162.768 394.7 162.501 394.7 162.171C394.7 161.841 394.433 161.574 394.102 161.574C393.772 161.574 393.505 161.841 393.505 162.171C393.505 162.501 393.772 162.768 394.102 162.768Z" fill="white"/>
<path d="M410.26 172.044C410.59 172.044 410.857 171.777 410.857 171.447C410.857 171.117 410.59 170.85 410.26 170.85C409.93 170.85 409.663 171.117 409.663 171.447C409.663 171.777 409.93 172.044 410.26 172.044Z" fill="white"/>
<path d="M393.856 179.876C394.187 179.876 394.454 179.609 394.454 179.279C394.454 178.949 394.187 178.682 393.856 178.682C393.526 178.682 393.259 178.949 393.259 179.279C393.259 179.609 393.526 179.876 393.856 179.876Z" fill="white"/>
<path d="M381.457 180.05C381.788 180.05 382.055 179.782 382.055 179.453C382.055 179.123 381.788 178.855 381.457 178.855C381.127 178.855 380.86 179.123 380.86 179.453C380.86 179.782 381.127 180.05 381.457 180.05Z" fill="white"/>
<path d="M419.146 190.623C419.477 190.623 419.744 190.356 419.744 190.026C419.744 189.696 419.477 189.429 419.146 189.429C418.816 189.429 418.549 189.696 418.549 190.026C418.549 190.356 418.816 190.623 419.146 190.623Z" fill="white"/>
<path d="M372.325 168.602C372.655 168.602 372.922 168.335 372.922 168.005C372.922 167.675 372.655 167.408 372.325 167.408C371.995 167.408 371.728 167.675 371.728 168.005C371.728 168.335 371.995 168.602 372.325 168.602Z" fill="white"/>
<path d="M382.511 194.559C382.841 194.559 383.108 194.292 383.108 193.962C383.108 193.632 382.841 193.365 382.511 193.365C382.181 193.365 381.914 193.632 381.914 193.962C381.914 194.292 382.181 194.559 382.511 194.559Z" fill="white"/>
<path d="M367.337 187.286C367.667 187.286 367.934 187.018 367.934 186.688C367.934 186.359 367.667 186.091 367.337 186.091C367.007 186.091 366.74 186.359 366.74 186.688C366.74 187.018 367.007 187.286 367.337 187.286Z" fill="white"/>
<path d="M359.996 175.061C360.326 175.061 360.593 174.794 360.593 174.464C360.593 174.134 360.326 173.867 359.996 173.867C359.666 173.867 359.399 174.134 359.399 174.464C359.399 174.794 359.666 175.061 359.996 175.061Z" fill="white"/>
<path d="M390.695 208.467C391.025 208.467 391.292 208.199 391.292 207.87C391.292 207.54 391.025 207.272 390.695 207.272C390.365 207.272 390.098 207.54 390.098 207.87C390.098 208.199 390.365 208.467 390.695 208.467Z" fill="white"/>
<path d="M363.965 206.503C364.295 206.503 364.562 206.236 364.562 205.906C364.562 205.576 364.295 205.309 363.965 205.309C363.635 205.309 363.368 205.576 363.368 205.906C363.368 206.236 363.635 206.503 363.965 206.503Z" fill="white"/>
<path opacity="0.6" d="M378.156 204.359L379.104 206.01C379.174 206.15 379.139 206.326 378.999 206.396C378.858 206.466 378.683 206.431 378.612 206.291L377.664 204.64C377.594 204.499 377.629 204.324 377.769 204.253C377.91 204.148 378.086 204.218 378.156 204.359Z" fill="black"/>
<path opacity="0.6" d="M358.521 158.344L359.469 159.995C359.54 160.135 359.505 160.311 359.364 160.381C359.224 160.451 359.048 160.416 358.978 160.275L358.029 158.625C357.959 158.484 357.994 158.309 358.135 158.238C358.275 158.168 358.451 158.203 358.521 158.344Z" fill="black"/>
<path opacity="0.6" d="M369.269 178.4H371.201C371.341 178.4 371.482 178.541 371.482 178.681C371.482 178.822 371.341 178.962 371.201 178.962H369.269C369.128 178.962 368.988 178.822 368.988 178.681C368.953 178.541 369.093 178.4 369.269 178.4Z" fill="black"/>
<path opacity="0.6" d="M385.145 170.462L386.269 168.916C386.375 168.776 386.55 168.776 386.656 168.846C386.796 168.951 386.796 169.127 386.726 169.232L385.602 170.778C385.497 170.918 385.321 170.918 385.215 170.848C385.075 170.743 385.04 170.567 385.145 170.462Z" fill="black"/>
<path opacity="0.6" d="M389.185 154.654L391.082 154.83C391.222 154.83 391.363 154.97 391.327 155.146C391.327 155.286 391.187 155.427 391.011 155.392L389.115 155.216C388.974 155.216 388.834 155.076 388.869 154.9C388.904 154.724 389.044 154.619 389.185 154.654Z" fill="black"/>
<path opacity="0.6" d="M363.192 197.684L364.316 196.139C364.421 195.998 364.597 195.998 364.703 196.069C364.843 196.174 364.843 196.35 364.773 196.455L363.649 198C363.543 198.141 363.368 198.141 363.262 198.071C363.122 198 363.087 197.79 363.192 197.684Z" fill="black"/>
<path opacity="0.6" d="M417.496 182.755L418.62 181.209C418.725 181.069 418.901 181.069 419.006 181.139C419.147 181.244 419.147 181.42 419.076 181.525L417.952 183.071C417.847 183.211 417.671 183.211 417.566 183.141C417.426 183.036 417.39 182.86 417.496 182.755Z" fill="black"/>
<path opacity="0.6" d="M402.568 163.401L404.219 164.35C404.359 164.42 404.394 164.596 404.324 164.736C404.254 164.877 404.078 164.912 403.938 164.841L402.287 163.893C402.146 163.823 402.111 163.647 402.182 163.507C402.252 163.366 402.427 163.331 402.568 163.401Z" fill="black"/>
<path opacity="0.6" d="M408.469 197.122L410.12 198.07C410.26 198.141 410.295 198.316 410.225 198.457C410.155 198.597 409.979 198.632 409.839 198.562L408.188 197.614C408.047 197.544 408.012 197.368 408.082 197.227C408.153 197.087 408.328 197.017 408.469 197.122Z" fill="black"/>
<path opacity="0.6" d="M350.512 176.646L352.163 177.594C352.304 177.665 352.339 177.84 352.269 177.981C352.198 178.121 352.023 178.156 351.882 178.086L350.231 177.138C350.091 177.067 350.056 176.892 350.126 176.751C350.196 176.611 350.372 176.541 350.512 176.646Z" fill="black"/>
<path opacity="0.6" d="M335.549 184.336L337.446 184.477C337.586 184.477 337.727 184.617 337.727 184.793C337.727 184.934 337.586 185.074 337.411 185.074L335.514 184.934C335.373 184.934 335.233 184.793 335.233 184.617C335.233 184.442 335.373 184.301 335.549 184.336Z" fill="black"/>
<path opacity="0.6" d="M391.574 194.313L393.471 194.664C393.611 194.699 393.717 194.84 393.717 194.98C393.681 195.121 393.541 195.226 393.4 195.226L391.504 194.875C391.363 194.84 391.258 194.699 391.258 194.559C391.293 194.383 391.433 194.278 391.574 194.313Z" fill="black"/>
<g opacity="0.15">
<path opacity="0.15" d="M422.554 180.79L421.254 179.455C422.695 181.738 422.659 184.724 421.079 186.972L408.68 204.78L410.05 205.904L422.94 188.096C424.837 185.391 424.31 182.616 422.554 180.79Z" fill="black"/>
</g>
<path fill-rule="evenodd" clip-rule="evenodd" d="M237.621 219.988C238.815 219.988 239.798 218.548 239.798 216.757C239.798 214.965 238.815 213.525 237.621 213.525C236.426 213.525 235.443 214.965 235.443 216.757C235.443 218.548 236.426 219.988 237.621 219.988Z" fill="#868A91"/>
<path opacity="0.2" d="M198.913 306.994L182.861 340.012L182.791 301.655L198.913 306.994Z" fill="black"/>
<path d="M198.21 307.943L136.25 369.903C134.634 371.519 132 371.519 130.384 369.903L91.922 331.477C90.3063 329.861 90.3063 327.227 91.922 325.611L153.883 263.65C155.498 262.035 158.133 262.035 159.748 263.65L198.21 302.077C199.861 303.693 199.861 306.327 198.21 307.943Z" fill="#21252B"/>
<path d="M159.924 274.537L147.525 286.936C147.033 287.428 146.19 287.428 145.698 286.936L143.521 284.759C143.029 284.267 143.029 283.424 143.521 282.932L155.92 270.533C156.412 270.041 157.255 270.041 157.746 270.533L159.924 272.711C160.451 273.202 160.451 274.01 159.924 274.537Z" fill="#FFBD3A"/>
<path d="M119.449 325.031L108.769 335.711L111.228 338.17L121.907 327.49L119.449 325.031Z" fill="#FFBD3A"/>
<path d="M113.068 325.819L106.78 332.107C106.324 332.563 106.324 333.266 106.78 333.722L108.431 335.373L115.526 328.278L113.068 325.819Z" fill="#FFBD3A"/>
<path d="M115.842 323.009L113.419 325.433L115.877 327.891L119.109 324.66L117.458 323.009C117.001 322.587 116.299 322.587 115.842 323.009Z" fill="#FFBD3A"/>
<path d="M113.243 340.219C113.7 340.676 114.402 340.676 114.859 340.219L117.563 337.514L115.105 335.056L111.627 338.533L113.243 340.219Z" fill="#FFBD3A"/>
<path d="M117.879 337.164L123.921 331.123C124.378 330.666 124.378 329.963 123.921 329.507L122.27 327.856L115.421 334.705L117.879 337.164Z" fill="#FFBD3A"/>
<path d="M134.459 337.552L122.973 349.038C122.727 349.284 122.305 349.284 122.059 349.038L119.636 346.614C119.39 346.368 119.39 345.947 119.636 345.701L131.122 334.215C131.368 333.969 131.789 333.969 132.035 334.215L134.459 336.639C134.74 336.885 134.74 337.271 134.459 337.552Z" fill="white"/>
<path d="M148.755 323.257L137.269 334.743C137.023 334.988 136.601 334.988 136.356 334.743L133.932 332.319C133.686 332.073 133.686 331.652 133.932 331.406L145.418 319.92C145.664 319.674 146.085 319.674 146.331 319.92L148.755 322.343C149.001 322.589 149.001 323.011 148.755 323.257Z" fill="white"/>
<path d="M163.05 308.959L151.564 320.445C151.318 320.691 150.897 320.691 150.651 320.445L148.227 318.021C147.981 317.775 147.981 317.354 148.227 317.108L159.713 305.622C159.959 305.376 160.381 305.376 160.626 305.622L163.05 308.046C163.296 308.291 163.296 308.713 163.05 308.959Z" fill="white"/>
<path d="M177.346 294.666L165.86 306.152C165.614 306.398 165.193 306.398 164.947 306.152L162.523 303.728C162.277 303.482 162.277 303.061 162.523 302.815L174.009 291.329C174.255 291.083 174.677 291.083 174.922 291.329L177.346 293.753C177.592 293.998 177.592 294.42 177.346 294.666Z" fill="white"/>
<path d="M152.653 336.78L131.649 357.785C131.262 358.171 130.665 358.171 130.279 357.785C129.892 357.399 129.892 356.802 130.279 356.415L151.284 335.41C151.67 335.024 152.267 335.024 152.653 335.41C153.04 335.797 153.04 336.429 152.653 336.78Z" fill="white"/>
<path opacity="0.7" d="M159.924 274.537L147.525 286.936C147.033 287.428 146.19 287.428 145.698 286.936L143.521 284.759C143.029 284.267 143.029 283.424 143.521 282.932L155.92 270.533C156.412 270.041 157.255 270.041 157.746 270.533L159.924 272.711C160.451 273.202 160.451 274.01 159.924 274.537Z" fill="white"/>
<path opacity="0.7" d="M152.653 336.78L131.649 357.785C131.262 358.171 130.665 358.171 130.279 357.785C129.892 357.399 129.892 356.802 130.279 356.415L151.284 335.41C151.67 335.024 152.267 335.024 152.653 335.41C153.04 335.797 153.04 336.429 152.653 336.78Z" fill="white"/>
<path d="M188.164 310.121C190.237 308.049 190.237 304.712 188.164 302.64C186.092 300.567 182.755 300.567 180.683 302.64C178.61 304.712 178.61 308.049 180.683 310.121C182.755 312.194 186.092 312.194 188.164 310.121Z" fill="#FFBD3A"/>
<path d="M183.142 315.144C185.214 313.072 185.214 309.735 183.142 307.663C181.069 305.59 177.733 305.59 175.66 307.663C173.588 309.735 173.588 313.072 175.66 315.144C177.733 317.217 181.069 317.217 183.142 315.144Z" fill="white"/>
<circle cx="248.987" cy="216.977" r="24.8987" fill="#E7F7F4"/>
<path fill-rule="evenodd" clip-rule="evenodd" d="M248.994 233.127C253.277 233.127 257.385 231.426 260.414 228.397C263.443 225.368 265.144 221.26 265.144 216.977C265.144 212.693 263.443 208.585 260.414 205.557C257.385 202.528 253.277 200.826 248.994 200.826C244.71 200.826 240.602 202.528 237.574 205.557C234.545 208.585 232.843 212.693 232.843 216.977C232.843 221.26 234.545 225.368 237.574 228.397C240.602 231.426 244.71 233.127 248.994 233.127ZM256.478 214.366C256.845 213.986 257.049 213.476 257.044 212.946C257.04 212.417 256.827 211.911 256.453 211.536C256.079 211.162 255.572 210.95 255.043 210.945C254.514 210.941 254.004 211.144 253.623 211.512L246.975 218.16L244.365 215.549C243.984 215.182 243.474 214.978 242.945 214.983C242.415 214.987 241.909 215.2 241.535 215.574C241.16 215.948 240.948 216.455 240.943 216.984C240.939 217.513 241.142 218.023 241.51 218.404L245.548 222.442C245.926 222.82 246.44 223.033 246.975 223.033C247.51 223.033 248.024 222.82 248.402 222.442L256.478 214.366Z" fill="#3ECF4C"/>
</svg>
